<svg width="13" height="18" viewBox="0 0 13 18" fill="none" xmlns="http://www.w3.org/2000/svg">
<g id="Layer_1" clip-path="url(#clip0_614_47)">
<path id="Vector" fill-rule="evenodd" clip-rule="evenodd" d="M12.9032 6.60833C13.0326 4.66539 11.5064 3.75323 9.47716 3.22753L9.88179 0.742384L8.28679 0.477069L7.89399 2.89219C7.47503 2.82257 7.04529 2.75947 6.61858 2.69743L7.01374 0.264604L5.42006 -0.000976562L5.01609 2.48404C4.66917 2.43345 4.32882 2.38339 3.99886 2.32908L3.99991 2.32043L1.8006 1.95381L1.52046 3.67868C1.52046 3.67868 2.70241 3.85174 2.67888 3.87065C3.32526 3.97821 3.47381 4.39302 3.48143 4.73049C3.05445 7.36021 2.74763 9.25096 2.30159 11.9982C2.23954 12.1994 2.06693 12.5077 1.61563 12.4333C1.63299 12.4551 0.456032 12.2401 0.456032 12.2401L0 14.1484L1.90143 14.4621C2.28752 14.527 2.66626 14.5967 3.03907 14.661L2.6188 17.2566L4.21156 17.522L4.62776 14.9544C5.06355 15.0368 5.48619 15.1101 5.89949 15.1796L5.48487 17.7334L7.07934 17.9988L7.50001 15.4087C10.2062 15.6996 12.1939 15.3275 12.8408 12.8172C13.3622 10.796 12.5574 9.72102 11.0957 9.0976C12.0973 8.77411 12.8115 8.03022 12.9032 6.6082V6.60833ZM9.741 11.974C9.41642 13.979 6.06342 13.187 4.98178 13.008L5.56007 9.45264C6.64092 9.63289 10.0809 9.88289 9.741 11.974ZM9.81356 6.8353C9.51699 8.65949 6.72374 7.9759 5.82391 7.82587L6.34724 4.60149C7.24761 4.75152 10.1229 4.93204 9.81356 6.8353Z" fill="#B2B2B2"/>
</g>
<defs>
<clipPath id="clip0_614_47">
<rect width="13" height="18" fill="white"/>
</clipPath>
</defs>
</svg>
