<svg width="220" height="58" viewBox="0 0 220 58" fill="none" xmlns="http://www.w3.org/2000/svg">
<path d="M207.672 22.2824H209.194V16.2294H211.404V14.8555H205.462V16.2294H207.672V22.2824ZM212.128 22.2824H213.65V18.1233L215.321 22.2824H216.807L218.478 18.1233V22.2824H220V14.8555H218.311L216.064 20.4628L213.817 14.8555H212.128V22.2824Z" fill="#000C49"/>
<path d="M87.7766 33.8034C87.7766 27.1629 92.6976 21.8457 99.611 21.8457C103.644 21.8457 106.092 23.2171 107.509 24.2276V29.0155H107.413C105.852 27.8366 103.38 26.6336 100.259 26.6336C96.2743 26.6336 93.2977 28.9674 93.2977 33.8034C93.2977 38.6394 96.2743 41.0694 100.259 41.0694C103.572 41.0694 106.044 39.7461 107.557 38.495H107.653V43.331C106.284 44.4137 103.956 45.8573 99.563 45.8573C92.7456 45.8573 87.7766 40.7326 87.7766 33.8034Z" fill="#000C49"/>
<path d="M125.201 22.5664H130.65V45.1103H126.425L125.945 41.5014C124.721 43.5946 122.344 45.6878 118.744 45.6878C113.246 45.6878 110.27 41.742 110.27 35.8233V22.5905H115.719V34.5962C115.719 39.4804 117.615 41.0924 120.208 41.0924C122.8 41.0924 125.177 39.0473 125.177 34.2594V22.5905L125.201 22.5664Z" fill="#000C49"/>
<path d="M157.294 33.5387C157.294 40.6122 152.757 45.7369 146.636 45.7369C142.843 45.7369 140.299 43.74 139.027 41.5024L138.498 45.1114H134.274V14.748H139.723V25.7433C141.091 23.602 143.563 21.9419 146.924 21.9419C152.853 21.9419 157.294 26.826 157.294 33.5146V33.5387ZM151.797 33.8755C151.797 30.1222 149.661 26.6095 145.556 26.6095C141.451 26.6095 139.507 30.1703 139.507 33.8274C139.507 37.4844 141.595 41.0934 145.604 41.0934C149.613 41.0934 151.797 37.6288 151.797 33.8755Z" fill="#000C49"/>
<path d="M157.294 33.5387C157.294 40.6122 152.757 45.7369 146.636 45.7369C142.843 45.7369 140.299 43.74 139.027 41.5024L138.498 45.1114H134.274V14.748H139.723V25.7433C141.091 23.602 143.563 21.9419 146.924 21.9419C152.853 21.9419 157.294 26.826 157.294 33.5146V33.5387ZM151.797 33.8755C151.797 30.1222 149.661 26.6095 145.556 26.6095C141.451 26.6095 139.507 30.1703 139.507 33.8274C139.507 37.4844 141.595 41.0934 145.604 41.0934C149.613 41.0934 151.797 37.6288 151.797 33.8755Z" fill="#000C49"/>
<path d="M158.975 15.4454C158.975 13.6409 160.391 12.2695 162.48 12.2695C164.568 12.2695 165.936 13.6409 165.936 15.4454C165.936 17.2499 164.472 18.6213 162.48 18.6213C160.487 18.6213 158.975 17.2018 158.975 15.4454ZM159.743 45.0869V22.5671H165.192V45.111H159.743V45.0869Z" fill="#000C49"/>
<path d="M167.905 43.3533V38.7579H168.001C169.754 39.9368 172.538 41.3082 175.611 41.3082C178.156 41.3082 179.74 40.418 179.74 38.8782C179.74 34.8362 168.097 36.8331 168.097 29.0618C168.097 24.7311 171.554 21.9883 176.667 21.9883C179.788 21.9883 182.26 23.071 183.629 23.9371V28.4844H183.533C182.116 27.5942 179.932 26.5837 177.099 26.5837C174.627 26.5837 173.259 27.4739 173.259 28.8693C173.259 32.5264 184.901 30.6738 184.901 38.6376C184.901 43.2811 181.012 45.7111 176.331 45.7111C172.826 45.7111 169.754 44.436 167.905 43.3292V43.3533Z" fill="#000C49"/>
<path d="M200.84 26.971H194.311V36.1377C194.311 39.1693 194.695 41.0218 197.191 41.0218C198.368 41.0218 199.688 40.5407 200.36 40.2038H200.456V44.2458C199.688 44.8714 197.671 45.6654 195.295 45.6654C188.862 45.6654 188.862 39.867 188.862 38.4475V26.971H185.021V22.5681H188.862V18.4298L194.215 14.7246H194.311V22.544H200.84V26.9469V26.971Z" fill="#000C49"/>
<path d="M61.3843 0H34.5305V10.4943L24.0517 0H0V22.4627L6.11508 28.5783H0V57.1567H34.5305V46.6624L45.0239 57.1567H69.0756V34.6939L62.9605 28.5783H69.0756V0H61.3989H61.3843ZM34.5305 28.5783V45.4363L7.44317 28.5783H34.5305V11.7203L61.6178 28.5783H34.5305Z" fill="#ED643D"/>
</svg>
