<svg width="15" height="12" viewBox="0 0 15 12" fill="none" xmlns="http://www.w3.org/2000/svg">
<g id="Frame" clip-path="url(#clip0_614_33)">
<path id="Vector" d="M2.43779 9.16096C2.52944 9.0674 2.65391 9.01465 2.78365 9.01465H14.755C14.973 9.01465 15.0824 9.28379 14.9281 9.44127L12.5625 11.8543C12.4709 11.9478 12.3464 12.0006 12.2166 12.0006H0.245308C0.0273045 12.0006 -0.0820745 11.7315 0.0721875 11.574L2.43779 9.16096Z" fill="#B2B2B2"/>
<path id="Vector_2" d="M2.43779 0.146313C2.52944 0.0527498 2.65391 0 2.78365 0H14.755C14.973 0 15.0824 0.269139 14.9281 0.426619L12.5625 2.83963C12.4709 2.9332 12.3464 2.98595 12.2166 2.98595H0.245308C0.0273045 2.98595 -0.0820745 2.71681 0.0721875 2.55933L2.43779 0.146313Z" fill="#B2B2B2"/>
<path id="Vector_3" d="M12.5625 4.62483C12.4709 4.53127 12.3464 4.47852 12.2166 4.47852H0.245308C0.0273045 4.47852 -0.0820745 4.74766 0.0721875 4.90513L2.43779 7.31815C2.52944 7.41171 2.65391 7.46446 2.78365 7.46446H14.755C14.973 7.46446 15.0824 7.19532 14.9281 7.03784L12.5625 4.62483Z" fill="#B2B2B2"/>
</g>
<defs>
<clipPath id="clip0_614_33">
<rect width="15" height="12" fill="white"/>
</clipPath>
</defs>
</svg>
